<?xml version="1.0" encoding="UTF-8" standalone="no"?>
<svg
   xmlns:dc="http://purl.org/dc/elements/1.1/"
   xmlns:cc="http://creativecommons.org/ns#"
   xmlns:rdf="http://www.w3.org/1999/02/22-rdf-syntax-ns#"
   xmlns:svg="http://www.w3.org/2000/svg"
   xmlns="http://www.w3.org/2000/svg"
   xmlns:sodipodi="http://sodipodi.sourceforge.net/DTD/sodipodi-0.dtd"
   xmlns:inkscape="http://www.inkscape.org/namespaces/inkscape"
   width="210mm"
   height="297mm"
   viewBox="0 0 210 297"
   version="1.1"
   id="svg8"
   inkscape:version="1.0.2-2 (e86c870879, 2021-01-15)"
   sodipodi:docname="training island.svg">
  <defs
     id="defs2">
    <inkscape:path-effect
       effect="simplify"
       id="path-effect837"
       is_visible="true"
       lpeversion="1"
       steps="1"
       threshold="9.90099e-05"
       smooth_angles="360"
       helper_size="0"
       simplify_individual_paths="false"
       simplify_just_coalesce="false" />
  </defs>
  <sodipodi:namedview
     id="base"
     pagecolor="#ffffff"
     bordercolor="#666666"
     borderopacity="1.0"
     inkscape:pageopacity="0.0"
     inkscape:pageshadow="2"
     inkscape:zoom="0.7"
     inkscape:cx="325.36177"
     inkscape:cy="430.89467"
     inkscape:document-units="mm"
     inkscape:current-layer="layer1"
     inkscape:document-rotation="0"
     showgrid="false"
     inkscape:snap-global="false"
     inkscape:window-width="1920"
     inkscape:window-height="1017"
     inkscape:window-x="-8"
     inkscape:window-y="-8"
     inkscape:window-maximized="1" />
  <metadata
     id="metadata5">
    <rdf:RDF>
      <cc:Work
         rdf:about="">
        <dc:format>image/svg+xml</dc:format>
        <dc:type
           rdf:resource="http://purl.org/dc/dcmitype/StillImage" />
        <dc:title></dc:title>
      </cc:Work>
    </rdf:RDF>
  </metadata>
  <g
     inkscape:label="Layer 1"
     inkscape:groupmode="layer"
     id="layer1">
    <rect
       style="fill:#3478be;stroke:none;stroke-width:0.396875;stroke-linejoin:round;stop-color:#000000;fill-opacity:1"
       id="rect833"
       width="396.11902"
       height="396.11902"
       x="-140.60715"
       y="-77.863091"
       ry="2.1733642" />
    <path
       style="fill:#7abc7c;fill-opacity:1;stroke:none;stroke-width:1;stroke-linejoin:round;stop-color:#000000;stroke-opacity:1;stroke-miterlimit:4;stroke-dasharray:none"
       d="m 138.44561,8.0180856 c -0.0244,-0.048766 -0.87162,-2.3066975 -1.60361,-2.6726951 -0.15937,-0.079684 -0.45486,0.1593686 -0.53454,0 -0.15937,-0.3187374 0.15937,-0.7503406 0,-1.069078 -0.0797,-0.1593689 -0.37517,0.079684 -0.53454,0 -2.22462,-1.1123118 0.57144,0.036902 -0.53454,-1.0690781 -0.12599,-0.1259922 -0.3655,0.056345 -0.53454,0 -0.37798,-0.1259922 -0.6911,-0.4085471 -1.06908,-0.5345393 -0.50711,-0.1690359 -1.06908,0 -1.60361,0 h -3.74178 c -0.35928,0 -1.28815,-0.1577327 -1.60361,0 -0.22539,0.1126908 -0.30916,0.4218485 -0.53454,0.5345393 -0.15937,0.079684 -0.37518,-0.079684 -0.53454,0 -0.22539,0.1126905 -0.30916,0.4218482 -0.53454,0.534539 -0.15937,0.079684 -0.37517,-0.079684 -0.53454,0 -0.87852,0.439257 -0.5766,1.3994413 -1.06908,2.1381561 -0.0988,0.1482545 -0.35636,0 -0.53454,0 -0.71272,0 -1.44672,-0.1728597 -2.13816,0 -0.24445,0.061115 -0.30915,0.4218483 -0.53453,0.5345391 -0.31874,0.1593688 -0.75035,-0.1593689 -1.06908,0 -0.22538,0.1126908 -0.30916,0.4218482 -0.53454,0.534539 -0.15937,0.079684 -0.37517,-0.079684 -0.53454,0 -0.22538,0.1126908 -0.30916,0.4218485 -0.53454,0.534539 -0.31874,0.1593689 -0.71272,0 -1.06908,0 -0.73154,0 -3.77346,-0.1676159 -4.27631,0 -0.23905,0.079685 -0.29549,0.4548547 -0.53454,0.534539 -0.33807,0.1126908 -0.72336,-0.08643 -1.06908,0 -0.38652,0.096632 -0.67839,0.4564023 -1.06908,0.5345391 -0.52415,0.1048318 -1.08503,-0.1296448 -1.60361,0 -0.24446,0.061115 -0.30916,0.4218484 -0.53454,0.5345392 -0.42763,0.2138157 -1.17599,-0.2138158 -1.60362,0 -0.22538,0.1126906 -0.30916,0.4218483 -0.53454,0.5345391 -0.15937,0.079684 -0.40854,-0.1259922 -0.53454,0 -0.12599,0.1259919 0.0662,0.3691032 0,0.534539 -0.29594,0.739851 -0.81709,1.382204 -1.06907,2.138156 -0.1127,0.338072 0.0864,0.723359 0,1.069078 -0.0966,0.386526 -0.43791,0.682552 -0.53454,1.069078 -0.18411,0.736414 0,1.887632 0,2.672696 0,0.178179 -0.126,0.408546 0,0.534539 0.23757,0.237572 1.00968,-0.415753 0.53454,0.534539 -0.1127,0.225381 -0.35636,0.356359 -0.53454,0.534539 -0.17818,0.178179 -0.30916,0.421848 -0.53454,0.534539 -0.15937,0.07968 -0.37517,-0.07969 -0.53454,0 -0.22538,0.11269 -0.29549,0.454854 -0.53454,0.534539 -0.36097,0.120322 -1.784398,-0.17688 -2.138156,0 -0.225383,0.112691 -0.295487,0.454854 -0.53454,0.534539 -0.676143,0.225381 -1.50068,-0.318738 -2.138157,0 -0.159369,0.07968 0.125992,0.408547 0,0.534539 -0.125992,0.125992 -0.356359,0 -0.534537,0 h -0.534541 c -1.021027,0 -3.383428,0.178577 -4.276312,0 -2.151049,-0.43021 -0.245597,-0.390068 -1.603616,-1.069078 -0.437954,-0.218977 -2.616784,0.11809 -3.207236,0 -0.552511,-0.110502 -1.056987,-0.397882 -1.603616,-0.534539 -1.069078,-0.26727 0,0.534539 -1.603619,0 -0.239051,-0.07969 -0.295484,-0.454855 -0.534537,-0.534539 -0.676146,-0.225382 -1.462014,0.225381 -2.138156,0 -0.239054,-0.07969 -0.332952,-0.383349 -0.534541,-0.534539 -0.513948,-0.385462 -1.101957,-0.667752 -1.603615,-1.069078 -0.393534,-0.314827 -0.618316,-0.843697 -1.069078,-1.069078 -0.657096,-0.328548 -1.481064,-0.205993 -2.138157,-0.534539 -0.450762,-0.225382 -0.618315,-0.843697 -1.069078,-1.069079 -0.657095,-0.328547 -1.456047,-0.261695 -2.138156,-0.534539 -0.233963,-0.09358 -0.309157,-0.421848 -0.53454,-0.534539 -0.201237,-0.100619 -1.386657,-0.07232 -1.603616,0 -0.377976,0.125992 -0.682553,0.437908 -1.069078,0.534539 -0.297616,0.0744 -2.58041,-0.09228 -2.672696,0 -0.125992,0.125992 0.125992,0.408547 0,0.534539 -0.251984,0.251984 -0.719638,-0.06989 -1.069078,0 -2.888769,0.577754 -1.263378,0.534539 -2.672694,0.534539 -0.220104,0 -1.462122,-0.141495 -1.603619,0 -0.125991,0.125992 0.169037,0.478194 0,0.53454 -0.507108,0.169035 -1.079457,-0.104832 -1.603618,0 -0.390684,0.07814 -0.682551,0.437907 -1.069078,0.534539 -0.345718,0.08643 -0.719638,-0.06989 -1.069078,0 -0.552511,0.110502 -1.047829,0.441907 -1.603616,0.534539 -0.527267,0.08788 -1.069078,0 -1.603618,0 -0.35636,0 -0.738206,0.132348 -1.069078,0 -0.596485,-0.238595 -1.007129,-0.830484 -1.603616,-1.069078 -0.410774,-0.16431 -1.614935,0 -2.138156,0 -0.715862,0 -1.971421,-0.140255 -2.672697,0 -0.55251,0.110502 -1.061841,0.379746 -1.603615,0.534539 -1.412775,0.403649 -2.882405,0.604442 -4.276312,1.069078 -0.755955,0.251984 -1.425438,0.712718 -2.138157,1.069078 -0.712718,0.356359 -1.475142,0.627068 -2.138156,1.069078 -0.209663,0.139775 -0.356359,0.356359 -0.53454,0.534539 -0.178178,0.178179 -0.421849,0.309157 -0.534538,0.534539 -0.251986,0.503968 -0.244644,1.12046 -0.53454,1.603617 -0.810877,1.351462 -2.333469,1.362046 -3.207234,2.672695 -0.09884,0.148255 0.07968,0.375171 0,0.534539 -0.225383,0.450763 -0.909709,0.590972 -1.069078,1.069078 -0.112692,0.338072 0.159369,0.75034 0,1.069079 -0.07969,0.159369 -0.454856,-0.15937 -0.534538,0 -0.159369,0.318738 0.159366,0.750339 0,1.069078 -0.07968,0.159369 -0.375171,-0.07969 -0.53454,0 -0.574612,0.287305 -1.101958,0.667752 -1.603619,1.069078 -3.480248,2.784199 1.659353,-0.562407 -2.672694,1.603618 -0.225381,0.112689 -0.309157,0.421846 -0.534539,0.534538 -0.159368,0.07968 -0.37517,-0.07969 -0.534539,0 -0.225381,0.112691 -0.324875,0.394763 -0.534539,0.53454 -0.331507,0.221004 -0.787351,0.252812 -1.069078,0.534538 -0.125992,0.125992 0.125992,0.408548 0,0.53454 -0.150711,0.150709 -2.09036,-0.0096 -2.138156,0 -0.552512,0.110501 -1.056987,0.397881 -1.603617,0.534538 -0.961523,0.240382 -5.085639,0.98965 -5.87993,1.069078 -0.709181,0.07092 -1.439278,-0.139777 -2.138156,0 -0.247091,0.04942 -0.309158,0.421849 -0.534539,0.53454 -0.5144569,0.257228 -2.5689896,-0.212749 -3.2072344,0 -0.3779761,0.125992 -0.682552,0.437907 -1.0690781,0.534538 -0.3457194,0.08643 -0.7163003,-0.0504 -1.069078,0 C 3.1846263,36.046433 1.6300501,36.679438 0,36.883194 c -0.70721502,0.0884 -1.439278,-0.139774 -2.1381562,0 -0.2470908,0.04942 -0.3091576,0.421849 -0.5345389,0.53454 -0.1593689,0.07968 -0.3616796,-0.04322 -0.5345393,0 -0.5466302,0.136658 -1.0569866,0.397881 -1.6036171,0.534538 -0.1728597,0.04321 -0.4085468,-0.125992 -0.534539,0 -0.2519841,0.251984 0.1593688,0.75034 0,1.069078 -0.1126908,0.225383 -0.4218482,0.309158 -0.534539,0.53454 -0.1944159,0.388832 0.1210077,3.550267 0,4.276313 -0.1207762,0.724656 -0.3904615,1.417767 -0.5345391,2.138156 -0.034944,0.17472 0.1482545,0.435702 0,0.534537 -0.4688218,0.31255 -1.1144025,0.25499 -1.603617,0.534541 -0.7735165,0.442007 -1.4132026,1.085792 -2.1381564,1.603616 -2.604709,1.860507 -0.711496,0.176958 -3.207234,2.672696 l -1.603617,1.603616 c -0.17818,0.178181 -0.404895,0.318465 -0.53454,0.53454 -0.409972,0.683287 -0.712718,1.425437 -1.069078,2.138156 -0.178179,0.35636 -0.456402,0.678394 -0.534539,1.069078 -0.121575,0.607878 0.19673,4.417391 0,4.810853 -0.11269,0.22538 -0.421848,0.309155 -0.534539,0.534537 -0.07968,0.15937 0.05635,0.365504 0,0.534541 -0.125992,0.377976 -0.386569,0.699151 -0.534539,1.069078 -0.715009,1.78752 -1.271886,3.612848 -2.138156,5.34539 -0.178179,0.356359 -0.408547,0.691102 -0.534539,1.069078 -0.05635,0.169035 0.125992,0.408546 0,0.534538 -0.125992,0.125992 -0.454854,-0.159369 -0.534539,0 -0.239053,0.478107 0.239053,1.125511 0,1.603618 -0.112691,0.22538 -0.356359,0.35636 -0.534539,0.534538 0,0.356359 0.112691,0.731007 0,1.069078 -0.07968,0.239054 -0.421848,0.309158 -0.534539,0.53454 -0.07968,0.159369 0.03494,0.35982 0,0.534538 -0.777068,2.154175 2.086139,2.448701 3.176062,3.446055 1.434148,1.312344 1.733193,3.012212 5.911102,3.502954 1.718209,0.17182 3.6027705,0 5.3453904,0 h 0.534539 c 0.1781797,0 0.4085468,-0.125992 0.534539,0 0.125992,0.125992 -0.1593688,0.454853 0,0.534537 0.3187375,0.15937 0.7233587,-0.08643 1.0690781,0 0.386526,0.09663 0.6991527,0.38657 1.069078,0.534541 0.5231538,0.209261 1.0569869,0.39788 1.6036171,0.534537 0.3457194,0.08643 0.7725693,-0.197672 1.0690782,0 0.4193269,0.279554 0.6497512,0.789528 1.0690781,1.069079 0.14825445,0.09884 0.3751703,-0.07968 0.53453905,0 0.22538145,0.112691 0.3091576,0.421849 0.53453905,0.53454 0.15936875,0.07968 0.43570273,-0.148254 0.53453905,0 0.31254784,0.46882 0.19646686,1.152853 0.53453905,1.603616 0.2390531,0.318738 0.7873513,0.252814 1.0690781,0.53454 1.4254376,1.425437 -0.534539,0.890897 1.6036172,1.603616 0.6414469,0.213817 1.4967093,-0.213815 2.1381561,0 1.5916357,0.530548 2.282194,1.645232 2.6726952,3.207237 0.1138663,0.455464 0,1.132334 0,1.603615 0,0.359281 0.1577329,1.288151 0,1.603619 -0.1404734,0.280945 -1.8572089,1.997681 -2.1381561,2.138156 -0.3187375,0.159366 -0.817094,-0.251984 -1.0690781,0 -0.1259922,0.125992 0.1259919,0.408546 0,0.534537 -0.1259922,0.125992 -0.4548547,-0.159369 -0.534539,0 -0.1593689,0.318739 0.069888,0.719641 0,1.069079 -0.1105024,0.55251 -0.4240369,1.051104 -0.534539,1.603616 -0.1048319,0.52416 0.1690359,1.09651 0,1.60362 -0.1259922,0.37797 -0.4379077,0.68255 -0.5345391,1.06908 -0.00447,0.0179 0.00284,1.60078 0,1.60361 -0.1422101,0.14221 -4.41751245,-0.0787 -4.8108515,0 -0.5525117,0.1105 -1.0690781,0.35636 -1.603617,0.53454 -0.5345393,0.17818 -1.1204599,0.24465 -1.6036174,0.53454 -0.4321492,0.25929 -0.6659033,0.7667 -1.069078,1.06908 -0.6374749,0.4781 -1.5747026,0.50562 -2.1381561,1.06908 -0.6299605,0.62996 -1.0470774,1.44248 -1.6036173,2.13815 -0.1574131,0.19677 -0.4409544,0.30058 -0.5345391,0.53454 -0.2728433,0.68211 -0.332714,1.43177 -0.534539,2.13816 -0.154793,0.54177 -0.424037,1.05111 -0.534539,1.60362 -0.238196,1.19097 0.199263,2.54619 0,3.74177 -0.185262,1.11157 -0.759493,2.12368 -1.069078,3.20724 -0.201825,0.70638 -0.205992,1.48106 -0.534539,2.13815 -0.225381,0.45076 -0.766697,0.6659 -1.069078,1.06908 -0.239053,0.31873 -0.408547,0.6911 -0.534539,1.06908 -0.05635,0.16903 0.125992,0.40854 0,0.53454 -0.214692,0.21469 -1.301296,-0.10078 -1.603618,0 -0.377976,0.12599 -0.678393,0.4564 -1.069078,0.53454 -1.048317,0.20966 -2.138156,0 -3.207234,0 h -6.949006 -3.207237 c -0.178178,0 -0.408546,-0.126 -0.534538,0 -0.125992,0.12599 0.125992,0.40854 0,0.53453 -0.125992,0.126 -0.408545,-0.12599 -0.53454,0 -0.125992,0.126 0.07968,0.37517 0,0.53454 -0.112689,0.22538 -0.377124,0.33778 -0.534538,0.53454 -0.55654,0.69568 -1.205195,1.34131 -1.603618,2.13816 -0.159367,0.31874 0,0.71272 0,1.06908 -0.35636,0.71271 -0.673733,1.4463 -1.069078,2.13815 -0.318736,0.55779 -0.738548,1.05274 -1.069078,1.60362 -0.204986,0.34164 -0.252812,0.78735 -0.534538,1.06908 -0.125992,0.12599 -0.408548,-0.12599 -0.53454,0 -0.125992,0.12599 0.125992,0.40854 0,0.53454 -0.125992,0.12599 -0.408546,-0.126 -0.534538,0 -0.125992,0.12599 0.125992,0.40854 0,0.53454 -0.125992,0.12599 -0.375171,-0.0797 -0.53454,0 -1.08475,0.54237 -1.461305,2.8879 -1.603616,3.74177 -0.08788,0.52726 0,1.06908 0,1.60362 v 3.74177 c 0,0.199 0.181872,2.30895 0,2.67269 -0.112691,0.22539 -0.394764,0.32488 -0.53454,0.53454 -0.221004,0.33151 -0.313534,0.73758 -0.534538,1.06908 -0.139777,0.20966 -0.454856,0.29549 -0.534541,0.53454 -0.112688,0.33807 0.15937,0.75034 0,1.06908 -0.07968,0.15937 -0.408545,-0.12599 -0.534537,0 -0.125992,0.12599 0.125992,0.40855 0,0.53454 -0.125992,0.12599 -0.435703,-0.14826 -0.534541,0 -1.629841,0.37841 -0.205991,1.48106 -0.534537,2.13816 -0.112692,0.22538 -0.38335,0.33295 -0.534541,0.53453 -0.38546,0.51395 -0.738547,1.05273 -1.069078,1.60362 -0.409972,0.68329 -0.59097,1.50068 -1.069078,2.13816 -1.363366,1.81782 -3.038655,2.34993 -3.741772,4.81085 -0.146849,0.51397 0,1.06908 0,1.60362 v 4.27631 c 0,0.33207 -0.136355,3.46906 0,3.74177 0.815055,1.63011 0.423762,-0.97764 1.069078,1.60362 0.08643,0.34572 -0.159369,0.75034 0,1.06908 0.07968,0.15937 0.454854,-0.15937 0.534538,0 0.159369,0.31873 0,0.71271 0,1.06907 0,1.23148 -0.10795,1.49567 1.069078,2.6727 0.281729,0.28173 0.750343,0.29548 1.069078,0.53454 0.403175,0.30238 0.712719,0.71272 1.069078,1.06908 0.534541,0.53454 1.11165,1.02965 1.603619,1.60361 0.579789,0.67643 1.13144,1.38268 1.603615,2.13816 0.03325,0.0532 0.868821,2.3053 1.603619,2.67269 0.318738,0.15937 0.75034,-0.15936 1.069078,0 0.22538,0.1127 0.295487,0.45486 0.534538,0.53454 0.0024,8e-4 1.603107,-5.2e-4 1.603618,0 0.125992,0.126 -0.03494,0.35982 0,0.53454 0.432641,2.16321 0.698736,2.63914 1.603616,4.81086 1.820254,4.3686 1.300086,3.29779 3.741774,7.48354 0.5235,0.89743 0.938493,1.87455 1.603619,2.6727 1.038608,1.24633 0.755552,0.25185 1.603615,0.53454 0.377976,0.12599 0.678395,0.4564 1.069079,0.53453 0.284009,0.0568 3.507152,0.11731 3.741773,0 0.139167,-0.0696 0.651215,-0.9524 1.069078,-0.53453 0.125992,0.12599 -0.07968,0.37517 0,0.53453 0.112691,0.22539 0.421848,0.30916 0.534539,0.53454 0.07969,0.15937 -0.05635,0.36551 0,0.53454 0.125992,0.37798 0.408547,0.6911 0.534539,1.06908 0.232318,0.69695 0.261696,1.45605 0.534539,2.13816 0.187169,0.46792 0.766697,0.6659 1.069078,1.06908 0.385462,0.51394 0.683617,1.08966 1.069078,1.60361 0.151191,0.20159 0.421849,0.30916 0.534539,0.53454 0.07969,0.15937 -0.159368,0.45486 0,0.53454 0.318738,0.15937 0.738207,-0.13235 1.069078,0 0.596487,0.2386 1.007131,0.83048 1.603618,1.06908 0.330871,0.13235 0.738206,-0.13235 1.069078,0 0.596487,0.23859 1.029005,0.78177 1.603617,1.06908 5.1625186,2.58126 -0.996868,-0.68865 2.6726951,0.53454 0.2390531,0.0797 0.3091576,0.42184 0.5345392,0.53453 0.1593686,0.0797 0.4085469,-0.12599 0.5345391,0 0.1259919,0.126 -0.1654358,0.46837 0,0.53454 0.8435596,0.33743 1.8107768,0.24724 2.6726951,0.53454 0.7559524,0.25199 1.392048,0.78929 2.1381561,1.06908 1.6559171,0.62097 1.8051215,0.53454 3.2072344,0.53454 0.17817968,0 0.36550295,-0.0564 0.53453905,0 0.37797618,0.12599 0.69110185,0.40855 1.06907815,0.53454 0.524946,0.17498 2.4737344,-0.19896 2.6726953,0 0.1259919,0.12599 -0.1259922,0.40855 0,0.53454 0.2817267,0.28172 0.737571,0.31353 1.069078,0.53454 0.2096635,0.13977 0.3091577,0.42185 0.534539,0.53454 0.1593689,0.0797 0.4085471,-0.126 0.5345391,0 0.1259922,0.12599 -0.1593689,0.45485 0,0.53453 0.6570942,0.32855 1.5002983,0.17005 2.1381561,0.53454 1.5193513,0.86821 1.9985043,2.62615 3.7417733,3.20724 0.507108,0.16903 1.069078,0 1.603617,0 h 3.741774 c 0.237776,0 1.806434,-0.16586 2.138156,0 1.799603,0.8998 -1.642387,0.529 2.138156,1.06908 5.327484,0 0.595681,-0.50397 2.672695,0.53453 0.570175,0.28509 1.567981,-0.28508 2.138155,0 0.225383,0.1127 0.295487,0.45486 0.534541,0.53455 0.338071,0.11269 0.750339,-0.15937 1.069078,0 0.159369,0.0797 -0.125992,0.40854 0,0.53453 0.125992,0.12599 0.375171,-0.0797 0.534537,0 0.434642,0.21732 0.442286,0.84794 1.069081,0.53454 0.22538,-0.11269 0.356359,-0.35636 0.534538,-0.53454 1.246034,-1.24603 2.628585,-2.54036 3.207234,-4.27631 0.165933,-0.4978 0,-2.10054 0,-2.67269 0,-0.53454 0.169037,-1.09651 0,-1.60362 -0.159369,-0.47811 -0.909709,-0.59097 -1.069078,-1.06908 -0.169037,-0.50711 0.239054,-1.12551 0,-1.60362 -0.112692,-0.22538 -0.421849,-0.30915 -0.534538,-0.53454 -0.07968,-0.15936 0,-0.35636 0,-0.53453 0,-0.17818 -0.148257,-0.43571 0,-0.53454 0.468821,-0.31255 1.056987,-0.39788 1.603616,-0.53454 0.34572,-0.0864 0.817094,0.25198 1.069078,0 0.125992,-0.12599 -0.125992,-0.40855 0,-0.53454 0.251984,-0.25199 0.75034,0.15937 1.069078,0 0.434642,-0.21732 0.442283,-0.84794 1.069078,-0.53454 0.641448,0.32072 0.962171,1.28289 1.603618,1.60362 0.6989,0.34945 1.088028,-0.49664 1.603616,0.53454 0.239054,0.4781 -0.129643,1.08503 0,1.60361 0.645316,2.58126 0.254024,-0.0265 1.069078,1.60362 0.07968,0.15937 -0.125992,0.40855 0,0.53454 0.281729,0.28173 0.787353,0.25281 1.069078,0.53454 0.563454,0.56345 0.505624,1.5747 1.069078,2.13815 0.125992,0.126 0.36168,-0.0432 0.534541,0 0.546629,0.13666 1.051105,0.42404 1.603615,0.53454 0.02059,0.004 1.600999,-0.003 1.603619,0 0.251984,0.25199 -0.112692,0.73101 0,1.06908 0.125992,0.37798 0.329552,0.72744 0.534538,1.06908 2.95534,4.92557 -0.538282,-0.53828 2.138156,2.13815 0.125992,0.126 0,0.35636 0,0.53455 v 0.53453 2.13816 c 0,0.53454 0.129645,1.08504 0,1.60362 -0.0092,0.0367 -0.995112,0.72365 -0.534538,1.06908 0.637474,0.4781 1.475142,0.62706 2.138156,1.06907 0.419328,0.27955 0.605859,0.87056 1.069078,1.06908 0.835081,0.35789 1.810777,0.24723 2.672694,0.53454 0.239054,0.0797 0.309158,0.42185 0.53454,0.53454 0.159369,0.0797 0.369105,-0.0662 0.534538,0 0.739852,0.29594 1.405742,0.75519 2.138156,1.06908 0.517898,0.22195 1.099651,0.28255 1.603618,0.53454 0.225383,0.11269 0.309158,0.42184 0.534541,0.53454 0.159366,0.0797 0.361677,-0.0432 0.534537,0 0.54663,0.13665 1.061845,0.37974 1.603619,0.53454 0.706384,0.20182 1.450276,0.27658 2.138156,0.53453 1.824995,0.68438 3.13771,2.11498 4.81085,2.6727 0.507108,0.16903 1.069078,0 1.603618,0 1.247257,0 2.518736,0.24461 3.741772,0 0.247092,-0.0494 0.356359,-0.35636 0.53454,-0.53454 0.178179,-0.17818 0.421849,-0.30916 0.534538,-0.53454 0.07968,-0.15937 0,-0.35636 0,-0.53454 0,-0.53454 -0.129643,-1.08504 0,-1.60361 0.06112,-0.24447 0.454856,-0.29549 0.53454,-0.53454 0.276675,-0.83003 -0.482221,-1.62978 0.534538,-2.13816 0.159369,-0.0797 0.365504,0.0564 0.534541,0 0.377975,-0.12599 0.691102,-0.40855 1.069078,-0.53454 0.441549,-0.14718 3.557357,0 4.276312,0 0.534537,0 1.096507,0.16904 1.603616,0 0.239053,-0.0797 0.309157,-0.42185 0.53454,-0.53454 0.331721,-0.16586 1.90038,0 2.138156,0 1.603616,0 3.215193,-0.15956 4.810853,0 0.90403,0.0904 1.764151,0.53454 2.672693,0.53454 0.251984,0 0.324877,-0.39476 0.534541,-0.53454 0.331507,-0.221 0.787349,-0.25281 1.069078,-0.53454 0.125992,-0.12599 -0.125992,-0.40854 0,-0.53454 1.16731,-1.16731 0.867881,-0.11111 2.138156,-0.53454 0.239051,-0.0797 0.309157,-0.42184 0.534538,-0.53453 0.159369,-0.0797 0.386283,0.0988 0.53454,0 0.419325,-0.27956 0.665906,-0.7667 1.069076,-1.06908 0.31874,-0.23906 0.78735,-0.25281 1.06908,-0.53454 0.28173,-0.28173 0.35636,-0.71272 0.53454,-1.06908 0.17818,-0.35636 0.40855,-0.6911 0.53454,-1.06908 0.0563,-0.16903 -0.12599,-0.40854 0,-0.53454 0.12599,-0.12599 0.40854,0.126 0.53454,0 0.25198,-0.25198 -0.25199,-0.81709 0,-1.06907 0.56345,-0.56346 1.50068,-0.59098 2.13815,-1.06908 0.40318,-0.30238 0.64975,-0.78953 1.06908,-1.06908 0.14825,-0.0988 0.40855,0.12599 0.53454,0 0.28173,-0.28173 0.25281,-0.78735 0.53454,-1.06908 0.56345,-0.56345 1.47514,-0.62707 2.13815,-1.06908 0.20967,-0.13977 0.29549,-0.45485 0.53454,-0.53454 0.33808,-0.11269 0.73101,0.11269 1.06908,0 0.23906,-0.0797 0.32488,-0.39476 0.53454,-0.53454 0.66301,-0.44201 1.5747,-0.50562 2.13816,-1.06907 0.12599,-0.126 -0.0797,-0.37517 0,-0.53454 0.2873,-0.57462 0.78177,-1.02901 1.06907,-1.60362 0.0797,-0.15937 -0.12599,-0.40855 0,-0.53454 0.28173,-0.28173 0.75035,-0.29549 1.06908,-0.53454 1.30603,-0.97952 1.35995,-1.65082 2.13816,-3.20723 0.17818,-0.35636 0.40855,-0.6911 0.53454,-1.06908 0.14597,-0.43793 0,-3.57154 0,-4.27631 v -0.53454 c 0,-0.17818 -0.12599,-0.40855 0,-0.53454 0.12599,-0.12599 0.37517,0.0797 0.53454,0 0.22538,-0.11269 0.30915,-0.42185 0.53454,-0.53454 0.15937,-0.0797 0.40854,0.12599 0.53454,0 0.12599,-0.12599 -0.15937,-0.45486 0,-0.53454 1.01987,-0.50994 1.03006,0.61257 1.60361,-0.53454 0.23438,-0.46876 -0.19651,-2.08315 0,-2.67269 l 0.53454,-1.06908 c 0.17818,0 0.40855,0.12599 0.53454,0 0.12599,-0.12599 -0.0563,-0.3655 0,-0.53454 0.25198,-0.75595 0.8171,-1.3822 1.06908,-2.13816 0.11269,-0.33807 -0.15937,-0.75034 0,-1.06907 0.11269,-0.22539 0.45485,-0.29549 0.53454,-0.53454 0.10655,-0.31967 0.11787,-3.50603 0,-3.74178 -0.22538,-0.45076 -0.8437,-0.61831 -1.06908,-1.06907 -0.15937,-0.31874 0.0864,-0.72337 0,-1.06908 -0.0966,-0.38653 -0.40855,-0.69111 -0.53454,-1.06908 -0.0563,-0.16904 0,-0.35636 0,-0.53454 0,-1.54668 0.71629,0.34208 1.06908,-1.06908 0.12964,-0.51858 -0.0879,-1.07635 0,-1.60362 0.26407,-1.58444 0.95149,-1.53944 0.53454,-3.20723 -0.0611,-0.24446 -0.45486,-0.29549 -0.53454,-0.53454 -0.11269,-0.33807 0.0864,-0.72336 0,-1.06908 -0.0966,-0.38652 -0.35636,-0.71272 -0.53454,-1.06908 -0.17818,-0.35636 -0.31354,-0.73757 -0.53454,-1.06907 -0.13978,-0.20967 -0.45485,-0.29549 -0.53454,-0.53454 -0.0934,-0.28006 -0.0771,-2.89875 0,-3.20724 0.0966,-0.38652 0.43791,-0.68255 0.53454,-1.06908 0.0864,-0.34571 -0.0864,-0.72335 0,-1.06907 0.0966,-0.38653 0.40855,-0.6911 0.53454,-1.06908 0.13616,-0.40847 0,-1.16994 0,-1.60362 v -4.27631 -1.06908 c 0,-0.17818 -0.0797,-0.37517 0,-0.53454 0.40934,-0.81869 0.95256,-0.41802 1.60362,-1.06908 0.28173,-0.28172 0.17818,-0.89089 0.53454,-1.06907 2.06265,-1.03133 2.43145,-0.30394 4.27631,-0.53454 0.90152,-0.11269 1.76971,-0.43421 2.67269,-0.53454 0.70836,-0.0787 1.43514,0.11717 2.13816,0 0.393,-0.0655 0.69915,-0.38657 1.06908,-0.53454 0.52315,-0.20926 1.15285,-0.19647 1.60362,-0.53454 0.31873,-0.23905 0.29548,-0.75034 0.53453,-1.06908 1.15602,-1.54136 0.77231,-0.69305 2.13816,-1.60361 0.47165,-0.31444 1.28918,-1.13197 1.60362,-1.60362 0.221,-0.33151 0.25281,-0.78735 0.53454,-1.06908 0.12599,-0.12599 0.35636,0 0.53454,0 h 0.53453 c 0.53454,0 1.07946,-0.10483 1.60362,0 1.10243,0.22048 1.56061,1.23292 2.6727,1.60362 0.4508,0.15026 1.18149,-0.21107 1.60361,0 0.22539,0.11269 0.30916,0.42184 0.53454,0.53453 0.15937,0.0797 0.37517,-0.0797 0.53454,0 0.22539,0.1127 0.29008,0.47343 0.53454,0.53455 0.68314,0.17078 5.2419,0 5.87993,0 3.55909,0 0.73932,-0.17286 4.27631,0.53453 0.17472,0.0349 0.37517,-0.0797 0.53454,0 0.22538,0.11269 0.30916,0.42185 0.53454,0.53454 0.0854,0.0427 1.60345,8e-4 1.60362,0 0.27955,-1.39775 0,-2.85087 0,-4.27631 0,-0.53816 0.16959,-2.16393 0,-2.6727 -0.0797,-0.23905 -0.42185,-0.30915 -0.53454,-0.53453 -0.0797,-0.15937 0.0797,-0.37517 0,-0.53454 -0.11269,-0.22538 -0.42185,-0.30916 -0.53454,-0.53454 -0.41101,-0.82203 0.70318,-1.58932 1.06908,-2.13816 0.221,-0.3315 0.25281,-0.78735 0.53454,-1.06908 0.25198,-0.25198 0.75034,0.15937 1.06908,0 0.22538,-0.11269 0.30915,-0.42184 0.53454,-0.53454 0.64374,-0.32187 1.11553,0.48809 2.13815,-0.53454 0.45427,-0.45426 0.61481,-1.14934 1.06908,-1.60361 0.28173,-0.28173 0.83002,-0.2158 1.06908,-0.53454 0.33807,-0.45076 0.28255,-1.09965 0.53454,-1.60362 0.11269,-0.22538 0.39476,-0.32487 0.53454,-0.53454 0.221,-0.33151 0.31353,-0.73757 0.53453,-1.06908 0.13978,-0.20966 0.42185,-0.30915 0.53454,-0.53453 0.0797,-0.15937 0,-0.35636 0,-0.53454 0.17818,-0.35636 0.29549,-0.75034 0.53454,-1.06908 0.135,-0.18 2.10661,-2.05929 2.13816,-2.13816 0.19852,-0.4963 0,-1.06908 0,-1.60361 0,-0.35636 0.19767,-0.77257 0,-1.06908 -1.66059,-2.49088 -0.3751,0.23446 -2.6727,-1.60362 -2.18504,-1.74803 0.0413,-1.365 -2.13815,-2.67269 -0.48316,-0.2899 -1.09965,-0.28256 -1.60362,-0.53454 -0.22538,-0.1127 -0.30916,-0.42185 -0.53454,-0.53454 -0.15937,-0.0797 -0.40855,0.12599 -0.53454,0 -0.12599,-0.12599 0.12599,-0.40855 0,-0.53454 -0.28172,-0.28173 -0.78735,-0.25281 -1.06908,-0.53454 -0.28172,-0.28173 -0.25281,-0.78735 -0.53453,-1.06908 -0.126,-0.12599 -0.35636,0 -0.53454,0 -0.35636,-0.35636 -0.7667,-0.6659 -1.06908,-1.06908 -0.23906,-0.31873 -0.31354,-0.73757 -0.53454,-1.06907 -0.13978,-0.20967 -0.39476,-0.32488 -0.53454,-0.53454 -0.221,-0.33151 -0.25281,-0.78735 -0.53454,-1.06908 -0.45427,-0.45427 -1.14935,-0.61481 -1.60362,-1.06908 -0.50115,-0.50115 -0.89239,-1.66401 -1.60361,-2.13816 -0.71856,-0.47904 -2.67923,-1.0756 -3.20724,-1.60361 -0.28173,-0.28173 -0.31353,-0.73757 -0.53454,-1.06908 -0.13977,-0.20966 -0.42185,-0.30916 -0.53453,-0.53454 -0.0797,-0.15937 0,-0.35636 0,-0.53454 -0.17819,-0.35636 -0.32956,-0.72743 -0.53455,-1.06908 -0.35635,-0.53454 -0.71271,-1.06908 -1.06907,-1.60362 -0.17818,0 -0.40855,0.126 -0.53454,0 -0.12599,-0.12599 0,-0.35635 0,-0.53454 0,-0.71271 0.0787,-1.42979 0,-2.13815 -0.10033,-0.90299 -0.38518,-1.77651 -0.53454,-2.6727 -0.20713,-1.24278 -0.37827,-2.49158 -0.53454,-3.74177 -1.76594,-15.893436 0.83039,5.5169 -1.60362,-9.087162 -0.20504,-1.230289 0.30251,-2.531756 0,-3.741775 -0.0611,-0.244459 -0.42185,-0.309157 -0.53454,-0.534537 -0.0797,-0.15937 0,-0.35636 0,-0.534541 -0.17818,-0.178178 -0.42184,-0.309157 -0.53454,-0.534537 -0.12266,-0.245322 0,-3.957675 0,-4.276315 v -4.81085 c 0,-0.298278 0.15948,-1.364404 0,-1.603619 -0.27955,-0.419325 -0.80978,-0.636928 -1.06907,-1.069078 -1.07804,-1.796719 0.0127,-1.230373 -1.06908,-2.672693 -0.45357,-0.604764 -1.26555,-0.927474 -1.60362,-1.603619 -0.0797,-0.159369 0.12599,-0.408546 0,-0.534538 -0.21404,-0.214045 -3.8117,0.185844 -4.27631,0 -2.69222,-1.076885 -1.49172,-0.852408 -3.74177,-2.138156 -0.69186,-0.395345 -1.39831,-0.773139 -2.13816,-1.069078 -0.16544,-0.06618 -0.40855,0.125992 -0.53454,0 -0.28173,-0.281728 -0.35636,-0.712718 -0.53454,-1.069078 -0.43622,-0.872447 -0.90394,-1.6819 -1.06908,-2.672696 -0.17465,-1.047927 0,-3.14769 0,-4.276312 0,-0.35636 0.1127,-0.731007 0,-1.069078 -0.0797,-0.239054 -0.42185,-0.309158 -0.53454,-0.534538 -0.0797,-0.159369 0.0797,-0.375171 0,-0.534541 -0.52498,-1.049972 -2.31637,-0.356367 -3.20723,-0.534537 -0.55251,-0.110503 -1.05111,-0.424037 -1.60362,-0.534541 -0.34944,-0.06989 -0.75034,0.15937 -1.06907,0 -0.15937,-0.07968 0,-0.356359 0,-0.534537 v -0.534541 c 0,-0.712718 0.10079,-1.432599 0,-2.138156 -0.0797,-0.557792 -0.39789,-1.056986 -0.53454,-1.603618 -0.0432,-0.172858 0.0797,-0.375169 0,-0.534538 -0.1127,-0.225382 -0.42185,-0.309157 -0.53454,-0.53454 -0.0797,-0.159367 0.0797,-0.375169 0,-0.534538 -0.11269,-0.225383 -0.42185,-0.309158 -0.53454,-0.53454 -0.0797,-0.159367 0.0797,-0.375169 0,-0.534538 -1.11231,-2.224624 0.0369,0.571442 -1.06908,-0.53454 -0.12599,-0.125992 0.0797,-0.375169 0,-0.534538 -0.11269,-0.225383 -0.45485,-0.295487 -0.53454,-0.53454 -0.11269,-0.338072 0,-0.712719 0,-1.069078 v -0.534538 c 0,-0.178181 -0.12599,-0.408548 0,-0.53454 0.12599,-0.125992 0.40855,0.125992 0.53454,0 0.12599,-0.125992 -0.0797,-0.375169 0,-0.534538 0.78652,-1.573046 0.53454,0.829757 0.53454,-1.603618 0,-5.115687 -0.23905,1.195265 0.53454,-2.672694 0.14533,-0.726668 -0.22818,-3.05725 0,-3.741775 0.0797,-0.239053 0.39476,-0.324874 0.53454,-0.534537 0.221,-0.331508 0.31353,-0.737572 0.53454,-1.069079 0.27955,-0.419327 0.84369,-0.618315 1.06907,-1.069078 0.0797,-0.159369 -0.12599,-0.408548 0,-0.53454 0.126,-0.125992 0.40855,0.125992 0.53454,0 0.28173,-0.281726 0.25282,-0.78735 0.53454,-1.069078 0.25199,-0.251984 0.72336,0.08643 1.06908,0 0.46792,-0.11698 2.16998,-0.666903 2.6727,-1.069078 0.59029,-0.472239 1.01331,-1.131377 1.60361,-1.603616 0.31112,-0.248893 0.71272,-0.356359 1.06908,-0.53454 0.35636,-0.178178 0.6911,-0.408546 1.06908,-0.534538 0.16903,-0.05635 0.40855,0.125992 0.53454,0 0.28172,-0.281728 0.31353,-0.737571 0.53454,-1.069078 -0.0534,-1.058955 0.78735,-0.252815 1.06907,-0.53454 0.45427,-0.454271 0.66776,-1.101958 1.06908,-1.603616 0.31483,-0.393533 0.6659,-0.766699 1.06908,-1.069081 0.31874,-0.239051 0.83003,-0.215799 1.06908,-0.534537 l 0.53454,-1.603619 c 0.17818,0 0.40854,0.125992 0.53454,0 0.25198,-0.251984 -0.19768,-0.772568 0,-1.069077 0.27955,-0.419327 0.8819,-0.601155 1.06907,-1.069078 0.29697,-0.742415 -0.19797,-1.880785 0,-2.672695 0.90013,-3.600517 0.008,-0.0083 1.06908,-1.069078 0.12599,-0.125992 0,-0.35636 0,-0.534539 0,-0.598479 0.15016,-2.22222 0,-2.672695 -0.0797,-0.239054 -0.39476,-0.324876 -0.53454,-0.534539 -0.221,-0.331507 -0.25281,-0.787352 -0.53454,-1.069078 -0.12599,-0.125993 -0.37516,0.07968 -0.53453,0 -0.22539,-0.112691 -0.30916,-0.421849 -0.53454,-0.534539 -0.15937,-0.07968 -0.40855,0.125991 -0.53454,0 -0.28173,-0.281728 -0.31354,-0.737572 -0.53454,-1.069079 -0.27955,-0.419327 -0.8437,-0.618315 -1.06908,-1.069078 -0.0797,-0.159368 0.12599,-0.408547 0,-0.534539 -0.12599,-0.125992 -0.40855,0.125992 -0.53454,0 -0.12599,-0.125992 0.0797,-0.37517 0,-0.534539 -0.11269,-0.225381 -0.42185,-0.309158 -0.53454,-0.534539 -0.29882,-0.597647 0.29883,-0.471431 0,-1.069078 -1.0385,-2.0770146 -0.53454,2.654787 -0.53454,-2.6726954 z"
       id="path840"
       sodipodi:nodetypes="csssssssssssssscssssssssssssssssscsssssssssssssssssssssssssssssssssscsssssssssssssssssssscssssccsssssscsssssscssscssssssssssssssssssssssscsscscsssssssssssssssssssssssssssccssssssssssssssssscssssssscssssssscsssssssssscssssssssssssssssssssccssssssssssssssssssssssssssscsssssssssssscsssssssssssssssssssssssssssscccsssscssssssscssssssssssssssscssssssssscsscsssssssssssssssscsssssssssssssccscssssssssscssssssssssscscssssssssssssssssssssssscsssssssssssssssscsssssssssssscssssssssscccsssscssscssssssssssssssssscssssssssssscssssssscssssssssssssssscsssccssscsssssssssssssssc" />
  </g>
</svg>
